<?xml version="1.0" encoding="UTF-8"?> <svg xmlns="http://www.w3.org/2000/svg" id="_Слой_2" data-name="Слой 2" viewBox="0 0 943.46 265.04"> <defs> <style> .cls-1 { fill: none; stroke: #000; stroke-linecap: round; stroke-linejoin: round; } .cls-1, .cls-2, .cls-3 { stroke-width: 0px; } .cls-2 { fill: #009949; } .cls-2, .cls-3 { fill-rule: evenodd; } </style> </defs> <g id="_组_1" data-name="组 1"> <g id="SPLINE"> <path class="cls-1" d="m537.18,47.85l2.22-7.79,1.74-6.11,3.54-12.45,2.72-9.54s3.8-5,8.07-7.33c6.29-3.43,21.57-4.62,21.57-4.62h-102.94s-74.39,261.28-74.39,261.28h76.71l59.03-207.34,1.73-6.09Z"></path> </g> <g id="SPLINE-2" data-name="SPLINE"> <path class="cls-1" d="m585.01,0l-74.39,261.28h76.71l59.03-207.34,1.73-6.09,2.22-7.79,1.74-6.11,3.54-12.45,2.72-9.54s3.8-5,8.07-7.33c6.29-3.43,21.57-4.62,21.57-4.62h-102.94Z"></path> </g> <g id="SPLINE-3" data-name="SPLINE"> <path class="cls-1" d="m875.47,135.91c-33.9-6.4-52-4.89-48.57-16.94,2.25-7.91,10.57-12.05,24.86-12.05,17.67,0,27.56,4.89,30.9,16.94l60.8-10.17c-1.82-18.8-10.99-32.52-26.43-41.59-16.07-9.44,23.55-10.48,23.55-10.48,0,0-58.24.11-72.2.11-57.15,0-98.39,28.61-109.32,67.01-4.72,16.57-1.32,32.38,9.21,42.92,13.17,13.18,31.11,16.19,51.47,19.95,25.3,4.89,41.36,2.64,38.04,14.31-2.14,7.53-13.15,13.18-30.82,13.18-18.83,0-30.15-4.34-34.22-12.68-.61-1.24-2.66-4.32-.04-6.11,2.96-2.02,12.53-4.47,12.32-4.62l-77.02,9.11c-.51,38.78,27.97,60.24,82.87,60.24,60.54,0,105.86-29.74,117.11-69.27,4.61-16.19,2.56-30.12-6.1-40.66-10.64-12.8-26.81-15.44-46.42-19.2Z"></path> </g> <g id="SPLINE-4" data-name="SPLINE"> <path class="cls-1" d="m760.56,12.48c.72-2.52.59-5.96,4.41-7.85,7.2-3.57,20.03-4.62,20.03-4.62h-84.81s-17.36,60.99-17.36,60.99h27.45l-42.24,51.95h27.45l52.34-55.72s7.95-27.91,12.74-44.75Z"></path> </g> <g id="SPLINE-5" data-name="SPLINE"> <path class="cls-1" d="m407.05,124.78l1.29-4.54,2.18-7.66,1.32-4.63s2.29-1.92,4.8-4.01c3.02-2.53,14.06-5.32,14.06-5.32l-92.92.02-46.3,162.64h76.71l37.11-130.33,1.76-6.17Z"></path> </g> <g id="SPLINE-6" data-name="SPLINE"> <path class="cls-1" d="m333.55,33.88l3.37-6.1,5.19-9.4,4.18-7.57s2.36-4.12,5.85-6.19c5.23-3.12,21.57-4.62,21.57-4.62h-83.48s-80.21,150.97-80.21,150.97c0,0,4.39-101.89,5.96-138.26.11-2.58,1.6-6.23,5.23-8.09,7.48-3.84,20.03-4.62,20.03-4.62h-89s-78,152.48-78,152.48c0,0,4.84-100.86,6.64-138.52.13-2.81.36-7.3,3.24-9.34C90.09.39,101.05,0,101.05,0H4.82S0,261.28,0,261.28h69.94l76.56-148.71-6.99,148.71h68.44l121.38-219.74,4.23-7.66Z"></path> </g> <g id="HATCH"> <path class="cls-3" d="m537.18,47.85l2.22-7.79,1.74-6.11,3.54-12.45,2.72-9.54s3.8-5,8.07-7.33c6.29-3.43,21.57-4.62,21.57-4.62h-102.94s-74.39,261.28-74.39,261.28h76.71l59.03-207.34,1.73-6.09M585.01,0l-74.39,261.28h76.71l59.03-207.34,1.73-6.09,2.22-7.79,1.74-6.11,3.54-12.45,2.72-9.54s3.8-5,8.07-7.33c6.29-3.43,21.57-4.62,21.57-4.62h-102.94m290.46,135.91c-33.9-6.4-52-4.89-48.57-16.94,2.25-7.91,10.57-12.05,24.86-12.05,17.67,0,27.56,4.89,30.9,16.94l60.8-10.17c-1.82-18.8-10.99-32.52-26.43-41.59-16.07-9.44,23.55-10.48,23.55-10.48,0,0-58.24.11-72.2.11-57.15,0-98.39,28.61-109.32,67.01-4.72,16.57-1.32,32.38,9.21,42.92,13.17,13.18,31.11,16.19,51.47,19.95,25.3,4.89,41.36,2.64,38.04,14.31-2.14,7.53-13.15,13.18-30.82,13.18-18.83,0-30.15-4.34-34.22-12.68-.61-1.24-2.66-4.32-.04-6.11,2.96-2.02,12.53-4.47,12.32-4.62l-77.02,9.11c-.51,38.78,27.97,60.24,82.87,60.24,60.54,0,105.86-29.74,117.11-69.27,4.61-16.19,2.56-30.12-6.1-40.66-10.64-12.8-26.81-15.44-46.42-19.2m-114.9-123.43c.72-2.52.59-5.96,4.41-7.85,7.2-3.57,20.03-4.62,20.03-4.62h-84.81s-17.36,60.99-17.36,60.99h27.45l-42.24,51.95h27.45l52.34-55.72s7.95-27.91,12.74-44.75m-353.52,112.3l1.29-4.54,2.18-7.66,1.32-4.63s2.29-1.92,4.8-4.01c3.02-2.53,14.06-5.32,14.06-5.32l-92.92.02-46.3,162.64h76.71l37.11-130.33,1.76-6.17m-73.5-90.89l3.37-6.1,5.19-9.4,4.18-7.57s2.36-4.12,5.85-6.19c5.23-3.12,21.57-4.62,21.57-4.62h-83.48s-80.21,150.97-80.21,150.97c0,0,4.39-101.89,5.96-138.26.11-2.58,1.6-6.23,5.23-8.09,7.48-3.84,20.03-4.62,20.03-4.62h-89s-78,152.48-78,152.48c0,0,4.84-100.86,6.64-138.52.13-2.81.36-7.3,3.24-9.34C90.09.39,101.05,0,101.05,0H4.82S0,261.28,0,261.28h69.94l76.56-148.71-6.99,148.71h68.44l121.38-219.74,4.23-7.66Z"></path> </g> <g id="SPLINE-7" data-name="SPLINE"> <path class="cls-1" d="m414.42,40.06c-3.06,10.45-13.16,19.16-23.53,20.9l5.5-18.77,18.97-9.29c.09,2.32-.2,4.65-.94,7.16Z"></path> </g> <g id="SPLINE-8" data-name="SPLINE"> <path class="cls-1" d="m383.15,60.97c-9.36-1.74-14.35-10.45-11.29-20.9.74-2.52,1.8-4.84,3.26-7.16l13.53,9.29-5.5,18.77Z"></path> </g> <g id="SPLINE-9" data-name="SPLINE"> <path class="cls-1" d="m399.37,18.77c6.39,0,11.34,2.9,14.04,7.55l-18.97,9.29-13.53-9.29c5.42-4.65,12.08-7.55,18.46-7.55Z"></path> </g> <g id="SPLINE-10" data-name="SPLINE"> <path class="cls-1" d="m435.17,33.29c.35-2.52.31-5.03.22-7.35-3.4.39-6.41-.58-6.97-3.29-.81-2.52.73-5.81,3.65-8.52-.98-1.94-2.21-3.68-3.64-5.42-3.33,2.13-6.73,2.52-8.85,1.16-2.06-1.55-2.32-4.65-.97-7.94-2.1-.77-4.38-1.55-6.79-1.94-2.26,3.1-5.4,5.23-8.3,5.23s-4.99-2.13-5.24-5.23c-2.63.39-5.18,1.16-7.92,1.94-.58,3.29-2.64,6.39-5.61,7.94-2.97,1.55-6.09.97-8.17-1.16-2.39,1.55-4.64,3.29-6.95,5.23,1.33,2.71.76,6-1.33,8.52-2.28,2.52-5.72,3.68-8.9,3.29-1.45,2.32-2.96,4.84-4.09,7.35,2.45,1.55,3.84,4.06,2.99,6.97-.85,2.9-3.77,5.61-7.21,6.77-.35,2.52-.31,5.03-.22,7.35,3.4-.39,6.16.77,6.97,3.29.81,2.52-.73,5.81-3.65,8.52.98,1.94,2.21,3.68,3.64,5.42,3.53-2.13,6.98-2.71,9.05-1.16,2.06,1.55,2.32,4.65.97,7.94,2.1.77,4.38,1.55,6.79,1.94,2.07-3.1,5.4-5.23,8.3-5.23s4.99,2.13,5.24,5.23c2.63-.39,5.37-1.16,7.92-1.94.58-3.29,2.64-6.39,5.61-7.94,2.97-1.55,6.09-.97,8.17,1.16,2.39-1.55,4.64-3.29,6.95-5.23-1.14-2.71-.76-6,1.33-8.52,2.28-2.52,5.72-3.68,8.9-3.29,1.45-2.32,2.96-4.84,4.09-7.35-2.7-1.35-4.03-4.06-3.18-6.97.85-2.9,3.77-5.61,7.21-6.77Z"></path> </g> <g id="HATCH-2" data-name="HATCH"> <path class="cls-2" d="m414.42,40.06c-3.06,10.45-13.16,19.16-23.53,20.9l5.5-18.77,18.97-9.29c.09,2.32-.2,4.65-.94,7.16m-31.27,20.9c-9.36-1.74-14.35-10.45-11.29-20.9.74-2.52,1.8-4.84,3.26-7.16l13.53,9.29-5.5,18.77m16.23-42.19c6.39,0,11.34,2.9,14.04,7.55l-18.97,9.29-13.53-9.29c5.42-4.65,12.08-7.55,18.46-7.55m35.8,14.52c.35-2.52.31-5.03.22-7.35-3.4.39-6.41-.58-6.97-3.29-.81-2.52.73-5.81,3.65-8.52-.98-1.94-2.21-3.68-3.64-5.42-3.33,2.13-6.73,2.52-8.85,1.16-2.06-1.55-2.32-4.65-.97-7.94-2.1-.77-4.38-1.55-6.79-1.94-2.26,3.1-5.4,5.23-8.3,5.23s-4.99-2.13-5.24-5.23c-2.63.39-5.18,1.16-7.92,1.94-.58,3.29-2.64,6.39-5.61,7.94-2.97,1.55-6.09.97-8.17-1.16-2.39,1.55-4.64,3.29-6.95,5.23,1.33,2.71.76,6-1.33,8.52-2.28,2.52-5.72,3.68-8.9,3.29-1.45,2.32-2.96,4.84-4.09,7.35,2.45,1.55,3.84,4.06,2.99,6.97-.85,2.9-3.77,5.61-7.21,6.77-.35,2.52-.31,5.03-.22,7.35,3.4-.39,6.16.77,6.97,3.29.81,2.52-.73,5.81-3.65,8.52.98,1.94,2.21,3.68,3.64,5.42,3.53-2.13,6.98-2.71,9.05-1.16,2.06,1.55,2.32,4.65.97,7.94,2.1.77,4.38,1.55,6.79,1.94,2.07-3.1,5.4-5.23,8.3-5.23s4.99,2.13,5.24,5.23c2.63-.39,5.37-1.16,7.92-1.94.58-3.29,2.64-6.39,5.61-7.94,2.97-1.55,6.09-.97,8.17,1.16,2.39-1.55,4.64-3.29,6.95-5.23-1.14-2.71-.76-6,1.33-8.52,2.28-2.52,5.72-3.68,8.9-3.29,1.45-2.32,2.96-4.84,4.09-7.35-2.7-1.35-4.03-4.06-3.18-6.97.85-2.9,3.77-5.61,7.21-6.77Z"></path> </g> </g> </svg> 